<svg width="512" height="512" viewBox="0 0 512 512" fill="none" xmlns="http://www.w3.org/2000/svg">
  <rect width="512" height="512" rx="112" fill="url(#bg)"/>
  <rect x="92" y="118" width="328" height="230" rx="42" fill="#FCFEFF" fill-opacity="0.96"/>
  <path d="M186 208C186 199.163 193.163 192 202 192H310C318.837 192 326 199.163 326 208V214C326 222.837 318.837 230 310 230H202C193.163 230 186 222.837 186 214V208Z" fill="#DCEEF1"/>
  <path d="M256 154C265.941 154 274 162.059 274 172V249.745L298.872 224.872C305.901 217.843 317.299 217.843 324.328 224.872C331.357 231.901 331.357 243.299 324.328 250.328L268.728 305.928C261.699 312.957 250.301 312.957 243.272 305.928L187.672 250.328C180.643 243.299 180.643 231.901 187.672 224.872C194.701 217.843 206.099 217.843 213.128 224.872L238 249.745V172C238 162.059 246.059 154 256 154Z" fill="url(#arrow)"/>
  <path d="M130 333C130 319.745 140.745 309 154 309H358C371.255 309 382 319.745 382 333V347C382 360.255 371.255 371 358 371H154C140.745 371 130 360.255 130 347V333Z" fill="#12343B"/>
  <path d="M343.632 177.446L373.327 160.902C382.085 156.023 392.883 162.354 392.883 172.383V205.471C392.883 215.499 382.085 221.83 373.327 216.952L343.632 200.407C334.608 195.381 334.608 182.472 343.632 177.446Z" fill="#F59E0B"/>
  <defs>
    <linearGradient id="bg" x1="64" y1="42" x2="431" y2="450" gradientUnits="userSpaceOnUse">
      <stop stop-color="#0F766E"/>
      <stop offset="0.52" stop-color="#1D4ED8"/>
      <stop offset="1" stop-color="#F59E0B"/>
    </linearGradient>
    <linearGradient id="arrow" x1="205" y1="154" x2="310" y2="309" gradientUnits="userSpaceOnUse">
      <stop stop-color="#0EA5A0"/>
      <stop offset="1" stop-color="#1D4ED8"/>
    </linearGradient>
  </defs>
</svg>
